# xmcd
#
# Track frame offsets:
#	150
#	14537
#	33437
#	51912
#	69987
#	88075
#	107850
#	125400
#	145975
#	167737
#	189762
#	209262
#	231012
#	250712
#	270175
#	290337
#
# Disc length: 4150 seconds
#
# Revision: 0
# Processed by: cddbd v1.5.2PL0 Copyright (c) Steve Scherf et al.
# Submitted via: EasyCDDAExtractor 15.2.5.1
#
DISCID=db103410
DTITLE=王菲 - 討好自己
DYEAR=1984
DGENRE=Folk-Rock
TTITLE0=討好自己
TTITLE1=密月期
TTITLE2=為非作歹
TTITLE3=我怕
TTITLE4=出路
TTITLE5=平凡最浪漫
TTITLE6=飄
TTITLE7=愛與痛的邊缘
TTITLE8=背影
TTITLE9=天不變地變
TTITLE10=天空
TTITLE11=棋子
TTITLE12=誓言
TTITLE13=容易受傷的女人
TTITLE14=執迷不悔
TTITLE15=季候風
EXTD=
EXTT0=
EXTT1=
EXTT2=
EXTT3=
EXTT4=
EXTT5=
EXTT6=
EXTT7=
EXTT8=
EXTT9=
EXTT10=
EXTT11=
EXTT12=
EXTT13=
EXTT14=
EXTT15=
PLAYORDER=
